<svg xmlns="http://www.w3.org/2000/svg" viewBox="0 0 64 64" width="64" height="64">
  <defs>
    <linearGradient id="proposifyGradient" x1="0%" y1="0%" x2="100%" y2="100%">
      <stop offset="0%" style="stop-color:#5C6BC0;stop-opacity:1" />
      <stop offset="100%" style="stop-color:#3949AB;stop-opacity:1" />
    </linearGradient>
  </defs>
  <!-- Background -->
  <rect width="64" height="64" rx="8" fill="url(#proposifyGradient)"/>
  <!-- Document icon -->
  <path d="M18 12h20l10 10v30a2 2 0 01-2 2H18a2 2 0 01-2-2V14a2 2 0 012-2z" fill="white"/>
  <!-- Document fold -->
  <path d="M38 12v10h10z" fill="#E8EAF6"/>
  <!-- Text lines -->
  <rect x="22" y="28" width="20" height="3" rx="1" fill="#5C6BC0"/>
  <rect x="22" y="35" width="16" height="3" rx="1" fill="#9FA8DA"/>
  <rect x="22" y="42" width="18" height="3" rx="1" fill="#9FA8DA"/>
  <!-- Checkmark circle -->
  <circle cx="48" cy="48" r="10" fill="#4CAF50"/>
  <path d="M43 48l3 3 6-6" stroke="white" stroke-width="2" fill="none" stroke-linecap="round" stroke-linejoin="round"/>
</svg>
